# xmcd CD database file generated by Grip 3.3.1
# 
# Track frame offsets:
#       150
#       24060
#       45597
#       63664
#       84330
#       103498
#       121290
#       139417
#       158267
#       173796
# 
# Disc length: 2609 seconds
# 
# Revision: 5
# Processed by: cddbd v1.5.2PL0 Copyright (c) Steve Scherf et al.
# Submitted via: Grip 3.3.1
# 
DISCID=7a0a2f0a
DTITLE=Blonde Redhead - 23
DYEAR=2007
DGENRE=Other
TTITLE0=23
TTITLE1=Dr. Strangeluv
TTITLE2=The Dress
TTITLE3=S/W
TTITLE4=Spring And By Summer Fall
TTITLE5=Silently
TTITLE6=Publisher
TTITLE7=Heroine
TTITLE8=Top Ranking
TTITLE9=My Impure Hair
EXTD=
EXTT0=
EXTT1=
EXTT2=
EXTT3=
EXTT4=
EXTT5=
EXTT6=
EXTT7=
EXTT8=
EXTT9=
PLAYORDER=
